<?xml version="1.0" standalone="no"?>
<svg xmlns="http://www.w3.org/2000/svg" viewBox="0 0 220.824 36" width="220.824" height="36"><g fill="#a8be9b" color="#a8be9b" transform="translate(0 4) scale(0.5185186)"><svg width="54.0" height="54.0" x="0.0" y="0.0" viewBox="0 0 54 54"><path fill="currentColor" fill-rule="evenodd" d="M.855 53.98c-.7.18-1.224-.903-.525-1.264 5.77-2.166 8.392-4.333 9.966-6.679-6.119-4.513-6.818-9.75-1.924-15.888 4.72 2.89 6.294 9.028 3.671 13.902 2.973-3.973 5.07-8.305 7.343-12.638-6.294-5.054-6.993-11.555-2.098-19.316 4.545 3.972 5.245 10.11 2.448 18.775 2.271-4.152 4.545-8.125 8.217-11.554C23.757 10.832 25.155 4.334 32.148 0c1.922 6.138.7 12.457-3.67 18.956 1.747-1.625 7.167-5.235 9.09-5.957 3.845-6.5 9.264-8.305 16.432-5.416-1.922 7.22-9.964 10.47-16.083 6.68-5.769 2.528-9.44 5.957-12.412 9.748 5.07-3.79 11.013-4.874 18.008-3.068-3.847 7.763-10.141 9.026-18.533 3.792-2.973 3.971-5.07 8.665-7.518 13.178 3.847-5.237 9.267-7.041 16.085-5.777-3.497 6.499-8.917 8.484-16.085 5.777C13.792 44.232 9.595 50.37.855 53.98"></path></svg></g><path fill="#09675b" fill-rule="nonzero" d="M1.90 0.59Q2.45 0.02 3.24 0.02Q4.03 0.02 4.60 0.59Q5.16 1.15 5.16 1.94Q5.16 2.74 4.60 3.29Q4.03 3.84 3.24 3.84Q2.45 3.84 1.90 3.29Q1.34 2.74 1.34 1.94Q1.34 1.15 1.90 0.59ZM0.91 7.63Q1.15 7.20 1.82 6.97Q2.50 6.74 3.16 6.74Q3.82 6.74 4.32 6.91L4.32 6.91Q3.38 14.14 3.38 14.21L3.38 14.21Q3.26 14.69 3.26 15.01Q3.26 15.34 3.31 15.58L3.31 15.58Q3.41 16.20 4.19 16.20Q4.97 16.20 5.63 15.18Q6.29 14.16 6.62 12.86L6.62 12.86Q6.79 12.96 7.15 13.44Q7.51 13.92 7.58 14.16L7.58 14.16Q7.10 16.08 5.95 17.26L5.95 17.26Q4.80 18.43 3.19 18.43Q1.58 18.43 0.80 17.64Q0.02 16.85 0.02 15.60L0.02 15.60Q0.02 15.34 0.05 15.05L0.05 15.05L0.91 7.63ZM12.46 15.58L12.46 15.58L13.03 10.22Q13.03 9.58 12.70 9.14Q12.36 8.71 11.58 8.71Q10.80 8.71 10.26 9.40Q9.72 10.08 9.58 11.11L9.58 11.11Q8.71 17.69 8.66 18.26L8.66 18.26L5.42 18.26L6.74 6.96Q7.75 6.70 8.28 6.70L8.28 6.70Q9.89 6.70 9.96 7.87L9.96 7.87Q11.14 6.72 12.78 6.72Q14.42 6.72 15.36 7.54Q16.30 8.35 16.30 9.60L16.30 9.60Q16.30 9.94 16.15 10.87L16.15 10.87Q15.60 14.52 15.60 15.12L15.60 15.12Q15.60 16.22 16.34 16.22L16.34 16.22Q17.98 16.22 18.82 12.82L18.82 12.82Q19.63 13.68 19.80 14.18L19.80 14.18Q18.53 18.41 15.38 18.41L15.38 18.41Q13.90 18.41 13.18 17.50Q12.46 16.58 12.46 15.58ZM28.08 10.92L28.08 10.92Q29.98 12.31 29.98 14.21Q29.98 16.10 28.49 17.26Q27 18.41 24.74 18.41L24.74 18.41Q23.28 18.41 22.31 17.68Q21.34 16.94 21.34 15.86Q21.34 14.78 22.06 14.15Q22.78 13.51 23.86 13.37L23.86 13.37Q23.35 14.09 23.35 14.75Q23.35 15.41 23.81 15.82L23.81 15.82Q24.26 16.22 24.96 16.22Q25.66 16.22 26.11 15.71Q26.57 15.19 26.57 14.52L26.57 14.52Q26.57 13.42 25.54 12.55L25.54 12.55Q24.91 12.05 24.19 11.60Q23.47 11.16 23.42 11.14L23.42 11.14Q23.33 11.06 23.23 11.02L23.23 11.02Q22.80 11.52 21.98 12.40Q21.17 13.27 20.69 13.80L20.69 13.80Q19.34 15.26 19.18 16.25L19.18 16.25Q19.13 16.44 19.13 16.98Q19.13 17.52 19.45 18.10Q19.78 18.67 20.23 18.96Q20.69 19.25 21.13 19.43Q21.58 19.61 21.90 19.68Q22.22 19.75 22.22 19.78L22.22 19.78Q22.22 19.94 21.70 20.16L21.70 20.16Q20.71 20.52 19.64 20.52Q18.58 20.52 17.57 19.75L17.57 19.75Q16.20 18.70 16.20 16.94L16.20 16.94Q16.20 15.86 16.75 14.81L16.75 14.81Q17.74 12.94 21.36 9.67L21.36 9.67Q20.47 8.78 20.47 7.78Q20.47 6.77 21.23 6.07Q21.98 5.38 23.02 5.38L23.02 5.38Q23.95 5.38 24.65 6.12L24.65 6.12Q25.10 6.62 25.10 7.39Q25.10 8.16 24.60 9.12L24.60 9.12Q27.17 10.27 28.08 10.92ZM22.87 8.21L22.87 8.21Q23.45 7.61 23.45 7.34L23.45 7.34Q23.45 6.74 22.92 6.70L22.92 6.70Q22.32 6.70 22.32 7.37L22.32 7.37Q22.32 7.78 22.87 8.21ZM41.14 6.96L41.14 6.96Q40.15 14.74 40.15 15.24L40.15 15.24Q40.15 16.20 40.85 16.20L40.85 16.20Q41.47 16.20 42.20 15.35Q42.94 14.50 43.37 12.79L43.37 12.79Q44.16 13.66 44.33 14.14L44.33 14.14Q43.78 16.46 42.58 17.42Q41.38 18.38 40.10 18.38L40.10 18.38Q38.02 18.38 37.30 16.78L37.30 16.78Q36.05 18.38 33.96 18.38L33.96 18.38Q32.23 18.38 31.30 17.52Q30.36 16.66 30.36 15.26L30.36 15.26Q30.36 14.93 30.48 14.09L30.48 14.09Q31.03 9.62 31.32 6.98L31.32 6.98Q32.06 6.72 32.69 6.72Q33.31 6.72 33.62 6.77Q33.94 6.82 34.22 7.13Q34.51 7.44 34.51 8.02L34.51 8.02L33.72 14.14Q33.67 14.42 33.67 14.66L33.67 14.66Q33.67 16.08 34.97 16.08L34.97 16.08Q36.17 16.08 36.96 14.90L36.96 14.90Q36.96 14.64 37.01 14.06L37.01 14.06L37.80 7.68Q37.97 7.27 38.52 7.00Q39.07 6.72 39.90 6.72Q40.73 6.72 41.14 6.96ZM52.46 18.26L49.37 18.26L50.28 10.30Q50.28 9.62 49.96 9.18Q49.63 8.74 48.82 8.74Q48 8.74 47.47 9.52Q46.94 10.30 46.80 11.16L46.80 11.16Q45.96 17.14 45.86 18.26L45.86 18.26L42.65 18.26L43.97 6.98Q44.98 6.72 45.50 6.72L45.50 6.72Q47.02 6.72 47.16 7.73L47.16 7.73Q48.34 6.72 49.73 6.72L49.73 6.72Q52.51 6.72 53.28 8.38L53.28 8.38Q54.46 6.70 56.64 6.70L56.64 6.70Q58.25 6.70 59.18 7.52Q60.12 8.35 60.12 9.60L60.12 9.60Q60.12 9.96 59.98 10.87L59.98 10.87Q59.42 14.47 59.42 15.10L59.42 15.10Q59.42 16.22 60.17 16.22L60.17 16.22Q60.79 16.22 61.50 15.40Q62.21 14.57 62.64 12.84L62.64 12.84Q63.46 13.70 63.62 14.21L63.62 14.21Q62.38 18.38 59.21 18.38L59.21 18.38Q57.72 18.38 57 17.47Q56.28 16.56 56.28 15.55L56.28 15.55L56.86 10.25Q56.86 9.60 56.52 9.17Q56.18 8.74 55.45 8.74Q54.72 8.74 54.17 9.29Q53.62 9.84 53.40 10.70L53.40 10.70Q52.68 16.80 52.46 18.26L52.46 18.26ZM68.18 6.72L68.18 6.72Q70.39 6.72 71.87 8.14Q73.34 9.55 73.34 11.59L73.34 11.59Q73.34 14.69 71.53 16.55Q69.72 18.41 67.15 18.41Q64.58 18.41 63.08 16.94Q61.58 15.48 61.58 13.32L61.58 13.32Q61.58 10.30 63.43 8.52L63.43 8.52Q65.30 6.72 68.18 6.72ZM67.72 8.66Q66.58 8.66 65.81 9.96Q65.04 11.26 64.97 13.22L64.97 13.22Q64.97 14.62 65.53 15.53Q66.10 16.44 67.25 16.44Q68.40 16.44 69.18 15.17Q69.96 13.90 69.96 12.26Q69.96 10.63 69.41 9.67L69.41 9.67Q68.86 8.66 67.72 8.66ZM84.38 10.92L84.38 10.92Q86.28 12.31 86.28 14.21Q86.28 16.10 84.79 17.26Q83.30 18.41 81.05 18.41L81.05 18.41Q79.58 18.41 78.61 17.68Q77.64 16.94 77.64 15.86Q77.64 14.78 78.36 14.15Q79.08 13.51 80.16 13.37L80.16 13.37Q79.66 14.09 79.66 14.75Q79.66 15.41 80.11 15.82L80.11 15.82Q80.57 16.22 81.26 16.22Q81.96 16.22 82.42 15.71Q82.87 15.19 82.87 14.52L82.87 14.52Q82.87 13.42 81.84 12.55L81.84 12.55Q81.22 12.05 80.50 11.60Q79.78 11.16 79.73 11.14L79.73 11.14Q79.63 11.06 79.54 11.02L79.54 11.02Q79.10 11.52 78.29 12.40Q77.47 13.27 76.99 13.80L76.99 13.80Q75.65 15.26 75.48 16.25L75.48 16.25Q75.43 16.44 75.43 16.98Q75.43 17.52 75.76 18.10Q76.08 18.67 76.54 18.96Q76.99 19.25 77.44 19.43Q77.88 19.61 78.20 19.68Q78.53 19.75 78.53 19.78L78.53 19.78Q78.53 19.94 78 20.16L78 20.16Q77.02 20.52 75.95 20.52Q74.88 20.52 73.87 19.75L73.87 19.75Q72.50 18.70 72.50 16.94L72.50 16.94Q72.50 15.86 73.06 14.81L73.06 14.81Q74.04 12.94 77.66 9.67L77.66 9.67Q76.78 8.78 76.78 7.78Q76.78 6.77 77.53 6.07Q78.29 5.38 79.32 5.38L79.32 5.38Q80.26 5.38 80.95 6.12L80.95 6.12Q81.41 6.62 81.41 7.39Q81.41 8.16 80.90 9.12L80.90 9.12Q83.47 10.27 84.38 10.92ZM79.18 8.21L79.18 8.21Q79.75 7.61 79.75 7.34L79.75 7.34Q79.75 6.74 79.22 6.70L79.22 6.70Q78.62 6.70 78.62 7.37L78.62 7.37Q78.62 7.78 79.18 8.21ZM93.86 18.41L93.86 18.41Q90.14 18.41 88.40 16.51Q86.66 14.62 86.66 11.51Q86.66 8.40 87.73 5.84Q88.80 3.29 90.91 1.64Q93.02 0 95.48 0Q97.94 0 99.35 1.19Q100.75 2.38 100.75 4.38Q100.75 6.38 99.52 7.70Q98.28 9.02 96.62 9.02Q94.97 9.02 94.06 8.29Q93.14 7.56 93.14 6.73Q93.14 5.90 93.80 5.44Q94.46 4.97 95.74 4.97L95.74 4.97Q95.42 5.28 95.42 5.80Q95.42 6.31 95.74 6.70Q96.05 7.08 96.70 7.08Q97.34 7.08 97.99 6.40Q98.64 5.71 98.64 4.58Q98.64 3.46 97.96 2.78Q97.27 2.11 96.02 2.11L96.02 2.11Q94.39 2.11 93.06 3.43Q91.73 4.75 91.03 6.79Q90.34 8.83 90.34 11.09L90.34 11.09Q90.34 13.03 91.18 14.52L91.18 14.52Q91.61 15.29 92.46 15.74Q93.31 16.20 94.46 16.20L94.46 16.20Q96.43 16.20 98.26 14.94Q100.08 13.68 101.33 11.69L101.33 11.69L102.14 13.15Q100.73 15.46 98.59 16.93Q96.46 18.41 93.86 18.41ZM106.82 6.72L106.82 6.72Q109.03 6.72 110.51 8.14Q111.98 9.55 111.98 11.59L111.98 11.59Q111.98 14.69 110.17 16.55Q108.36 18.41 105.79 18.41Q103.22 18.41 101.72 16.94Q100.22 15.48 100.22 13.32L100.22 13.32Q100.22 10.30 102.07 8.52L102.07 8.52Q103.94 6.72 106.82 6.72ZM106.36 8.66Q105.22 8.66 104.45 9.96Q103.68 11.26 103.61 13.22L103.61 13.22Q103.61 14.62 104.17 15.53Q104.74 16.44 105.89 16.44Q107.04 16.44 107.82 15.17Q108.60 13.90 108.60 12.26Q108.60 10.63 108.05 9.67L108.05 9.67Q107.50 8.66 106.36 8.66ZM116.24 18.43Q114.77 18.43 113.93 17.60Q113.09 16.78 113.09 15.34L113.09 15.34Q113.09 14.95 114.38 3.94L114.38 3.94Q114.72 1.10 116.18 0.36L116.18 0.36Q116.86 0 117.79 0L117.79 0Q120.96 0 120.96 2.93L120.96 2.93Q120.96 3.17 120.94 3.43L120.94 3.43Q120.70 6.65 116.90 9.98L116.90 9.98Q116.78 11.16 116.64 12.26L116.64 12.26Q116.35 14.74 116.35 15L116.35 15Q116.35 16.25 117.43 16.25L117.43 16.25Q118.61 16.25 119.63 14.89Q120.65 13.54 121.20 11.42L121.20 11.42Q121.42 11.50 121.80 11.82Q122.18 12.14 122.33 12.38L122.33 12.38Q121.94 14.38 120.60 16.20L120.60 16.20Q119.93 17.14 118.90 17.74L118.90 17.74Q117.72 18.43 116.24 18.43ZM117.24 6.86L117.17 7.58Q119.38 5.16 119.38 3.24L119.38 3.24Q119.38 2.09 118.51 2.09L118.51 2.09Q117.96 2.14 117.78 2.81Q117.60 3.48 117.44 4.99Q117.29 6.50 117.24 6.86L117.24 6.86ZM126.65 6.72L126.65 6.72Q128.86 6.72 130.33 8.14Q131.81 9.55 131.81 11.59L131.81 11.59Q131.81 14.69 130.00 16.55Q128.18 18.41 125.62 18.41Q123.05 18.41 121.55 16.94Q120.05 15.48 120.05 13.32L120.05 13.32Q120.05 10.30 121.90 8.52L121.90 8.52Q123.77 6.72 126.65 6.72ZM126.18 8.66Q125.04 8.66 124.27 9.96Q123.50 11.26 123.43 13.22L123.43 13.22Q123.43 14.62 124.00 15.53Q124.56 16.44 125.71 16.44Q126.86 16.44 127.64 15.17Q128.42 13.90 128.42 12.26Q128.42 10.63 127.87 9.67L127.87 9.67Q127.32 8.66 126.18 8.66ZM142.70 18.26L139.61 18.26L140.52 10.30Q140.52 9.62 140.20 9.18Q139.87 8.74 139.06 8.74Q138.24 8.74 137.71 9.52Q137.18 10.30 137.04 11.16L137.04 11.16Q136.20 17.14 136.10 18.26L136.10 18.26L132.89 18.26L134.21 6.98Q135.22 6.72 135.74 6.72L135.74 6.72Q137.26 6.72 137.40 7.73L137.40 7.73Q138.58 6.72 139.97 6.72L139.97 6.72Q142.75 6.72 143.52 8.38L143.52 8.38Q144.70 6.70 146.88 6.70L146.88 6.70Q148.49 6.70 149.42 7.52Q150.36 8.35 150.36 9.60L150.36 9.60Q150.36 9.96 150.22 10.87L150.22 10.87Q149.66 14.47 149.66 15.10L149.66 15.10Q149.66 16.22 150.41 16.22L150.41 16.22Q151.03 16.22 151.74 15.40Q152.45 14.57 152.88 12.84L152.88 12.84Q153.70 13.70 153.86 14.21L153.86 14.21Q152.62 18.38 149.45 18.38L149.45 18.38Q147.96 18.38 147.24 17.47Q146.52 16.56 146.52 15.55L146.52 15.55L147.10 10.25Q147.10 9.60 146.76 9.17Q146.42 8.74 145.69 8.74Q144.96 8.74 144.41 9.29Q143.86 9.84 143.64 10.70L143.64 10.70Q142.92 16.80 142.70 18.26L142.70 18.26ZM159.18 6.70Q160.90 6.70 162.14 8.11Q163.39 9.53 163.39 11.42L163.39 11.42Q163.39 11.69 163.37 11.98L163.37 11.98Q163.10 15.12 161.26 16.76Q159.41 18.41 156.43 18.41L156.43 18.41Q155.23 18.36 154.34 17.98Q153.46 17.59 153.02 17.02L153.02 17.02Q152.21 15.96 152.21 15.13Q152.21 14.30 152.45 12.46L152.45 12.46Q152.95 8.66 153.89 0.19L153.89 0.19Q154.39 0 155.23 0L155.23 0Q157.15 0 157.15 1.10L157.15 1.10L156.34 7.49Q157.46 6.70 159.18 6.70ZM155.45 14.96Q155.45 15.53 155.87 15.90Q156.29 16.27 157.03 16.27L157.03 16.27Q158.26 16.27 159.05 15.14L159.05 15.14Q160.01 13.78 160.01 11.59L160.01 11.59Q160.01 10.54 159.53 9.72Q159.05 8.90 158.04 8.90L158.04 8.90Q156.67 8.90 155.95 10.54L155.95 10.54L155.76 11.98Q155.45 14.40 155.45 14.96ZM166.25 0.59Q166.80 0.02 167.59 0.02Q168.38 0.02 168.95 0.59Q169.51 1.15 169.51 1.94Q169.51 2.74 168.95 3.29Q168.38 3.84 167.59 3.84Q166.80 3.84 166.25 3.29Q165.70 2.74 165.70 1.94Q165.70 1.15 166.25 0.59ZM165.26 7.63Q165.50 7.20 166.18 6.97Q166.85 6.74 167.51 6.74Q168.17 6.74 168.67 6.91L168.67 6.91Q167.74 14.14 167.74 14.21L167.74 14.21Q167.62 14.69 167.62 15.01Q167.62 15.34 167.66 15.58L167.66 15.58Q167.76 16.20 168.54 16.20Q169.32 16.20 169.98 15.18Q170.64 14.16 170.98 12.86L170.98 12.86Q171.14 12.96 171.50 13.44Q171.86 13.92 171.94 14.16L171.94 14.16Q171.46 16.08 170.30 17.26L170.30 17.26Q169.15 18.43 167.54 18.43Q165.94 18.43 165.16 17.64Q164.38 16.85 164.38 15.60L164.38 15.60Q164.38 15.34 164.40 15.05L164.40 15.05L165.26 7.63ZM180.65 18.38L180.65 18.38Q178.44 18.38 177.72 16.85L177.72 16.85Q176.47 18.41 174.52 18.41Q172.56 18.41 171.23 17.09Q169.90 15.77 169.90 13.61L169.90 13.61Q169.90 10.46 171.74 8.59Q173.59 6.72 176.42 6.72L176.42 6.72Q176.50 6.72 176.57 6.72L176.57 6.72Q177.77 6.72 178.78 7.13L178.78 7.13Q179.42 6.72 180.35 6.72Q181.27 6.72 181.68 6.96L181.68 6.96Q181.46 8.74 181.22 10.45Q180.98 12.17 180.89 12.89L180.89 12.89Q180.67 14.52 180.67 15.24L180.67 15.24Q180.67 16.20 181.44 16.20L181.44 16.20Q182.04 16.20 182.71 15.40Q183.38 14.59 183.89 12.86L183.89 12.86Q184.58 13.49 184.85 14.26L184.85 14.26Q184.15 16.54 182.98 17.46Q181.80 18.38 180.65 18.38ZM176.78 8.59L176.78 8.59Q175.25 8.59 174.35 9.76Q173.45 10.92 173.28 13.22L173.28 13.22Q173.26 13.44 173.26 13.63L173.26 13.63Q173.26 14.81 173.82 15.50Q174.38 16.20 175.27 16.20L175.27 16.20Q176.78 16.20 177.55 14.06L177.55 14.06L178.13 8.88Q177.43 8.59 176.78 8.59Z" transform="translate(36, 8.868)"></path></svg>